<?xml version="1.0" standalone="no"?>
<!DOCTYPE svg PUBLIC "-//W3C//DTD SVG 20010904//EN"
 "http://www.w3.org/TR/2001/REC-SVG-20010904/DTD/svg10.dtd">
<svg version="1.0" xmlns="http://www.w3.org/2000/svg"
 width="64.000000pt" height="64.000000pt" viewBox="0 0 64.000000 64.000000"
 preserveAspectRatio="xMidYMid meet">

<g transform="translate(0.000000,64.000000) scale(0.100000,-0.100000)"
fill="#000000" stroke="none">
<path d="M30 593 c0 -10 21 -39 47 -65 l47 -48 -47 -48 c-26 -26 -47 -55 -47
-65 0 -30 33 -18 82 30 l48 47 48 -47 c49 -48 82 -60 82 -30 0 10 -21 39 -47
65 l-47 48 47 48 c48 49 60 82 30 82 -10 0 -39 -21 -65 -47 l-48 -47 -48 47
c-49 48 -82 60 -82 30z"/>
<path d="M389 571 c-35 -35 -39 -44 -39 -90 0 -44 5 -56 34 -89 33 -35 38 -37
95 -37 55 0 64 3 93 33 30 29 33 38 33 93 0 57 -2 62 -37 95 -33 29 -45 34
-89 34 -46 0 -55 -4 -90 -39z m146 -36 c16 -15 25 -36 25 -55 0 -19 -9 -40
-25 -55 -15 -16 -36 -25 -55 -25 -19 0 -40 9 -55 25 -16 15 -25 36 -25 55 0
19 9 40 25 55 15 16 36 25 55 25 19 0 40 -9 55 -25z"/>
<path d="M69 251 c-35 -35 -39 -44 -39 -90 0 -44 5 -56 34 -89 33 -35 38 -37
95 -37 55 0 64 3 93 33 30 29 33 38 33 93 0 57 -2 62 -37 95 -33 29 -45 34
-89 34 -46 0 -55 -4 -90 -39z m146 -36 c50 -49 15 -135 -55 -135 -19 0 -40 9
-55 25 -50 49 -15 135 55 135 19 0 40 -9 55 -25z"/>
<path d="M350 273 c0 -10 21 -39 47 -65 l47 -48 -47 -48 c-26 -26 -47 -55 -47
-65 0 -30 33 -18 82 30 l48 47 48 -47 c49 -48 82 -60 82 -30 0 10 -21 39 -47
65 l-47 48 47 48 c48 49 60 82 30 82 -10 0 -39 -21 -65 -47 l-48 -47 -48 47
c-49 48 -82 60 -82 30z"/>
</g>
</svg>
